<?xml version="1.0" standalone="no"?>
<!DOCTYPE svg PUBLIC "-//W3C//DTD SVG 20010904//EN"
 "http://www.w3.org/TR/2001/REC-SVG-20010904/DTD/svg10.dtd">
<svg version="1.0" xmlns="http://www.w3.org/2000/svg"
 width="800.000000pt" height="800.000000pt" viewBox="0 0 800.000000 800.000000"
 preserveAspectRatio="xMidYMid meet">
<metadata>
Created by potrace 1.14, written by Peter Selinger 2001-2017
</metadata>
<g transform="translate(0.000000,800.000000) scale(0.100000,-0.100000)"
fill="#000000" stroke="none">
<path d="M1147 6852 c-16 -17 -17 -213 -17 -2854 0 -2734 1 -2835 18 -2851 17
-15 72 -17 579 -17 530 0 561 1 576 18 16 17 17 90 17 850 l0 831 1358 4
c1213 3 1368 5 1462 20 689 111 1240 522 1538 1145 230 483 253 1053 65 1562
-250 674 -811 1141 -1543 1282 l-115 22 -1961 3 c-1899 3 -1961 3 -1977 -15z
m3928 -1201 c291 -98 491 -305 566 -586 27 -103 30 -303 6 -415 -49 -224 -227
-443 -439 -539 -154 -70 -36 -65 -1535 -68 l-1353 -3 0 820 0 820 1343 -2
1342 -3 70 -24z"/>
</g>
</svg>
